<svg xmlns="http://www.w3.org/2000/svg" viewBox="0 0 1209.4341 316.5782">
  <defs>
    <style>
      .cls-1 {
        fill: #0d1117;
      }

      .cls-2 {
        fill: #1e2630;
      }

      .cls-3 {
        fill: #fff;
      }

      .cls-4 {
        fill: #6100bf;
      }

      .cls-5 {
        fill: #f05;
      }
    </style>
  </defs>
  <g id="Layer_3" data-name="Layer 3">
    <g id="bg">
      <rect class="cls-1" x="0.7498" y="3.5833" width="1208.6843" height="310.9611"/>
      <rect class="cls-2" x="0.7498" y="309.4116" width="1208.6843" height="7.1667"/>
      <rect class="cls-2" x="0.7498" width="1208.6843" height="7.1667"/>
    </g>
    <path class="cls-3" d="M50.5837,93.5446a21.2094,21.2094,0,0,1-.48,4.8h-28.8a21.0953,21.0953,0,0,1-.48-4.8,20.156,20.156,0,0,1,.48-4.8h9.6a21.0922,21.0922,0,0,1-.48-4.8,20.1589,20.1589,0,0,1,.48-4.8,21.0919,21.0919,0,0,1-.48-4.8,20.1533,20.1533,0,0,1,.48-4.8,21.095,21.095,0,0,1-.48-4.8,20.1562,20.1562,0,0,1,.48-4.8,21.095,21.095,0,0,1-.48-4.8,20.1547,20.1547,0,0,1,.48-4.8,21.0953,21.0953,0,0,1-.48-4.8,20.156,20.156,0,0,1,.48-4.8h-7.2a21.0922,21.0922,0,0,1-.48-4.8,20.1589,20.1589,0,0,1,.48-4.8h16.8a20.2581,20.2581,0,0,1,.48,4.8,21.2006,21.2006,0,0,1-.48,4.8,20.2552,20.2552,0,0,1,.48,4.8,21.2037,21.2037,0,0,1-.48,4.8,20.2539,20.2539,0,0,1,.48,4.8,21.2034,21.2034,0,0,1-.48,4.8,20.2554,20.2554,0,0,1,.48,4.8,21.2034,21.2034,0,0,1-.48,4.8,20.2524,20.2524,0,0,1,.48,4.8,21.2,21.2,0,0,1-.48,4.8,20.2581,20.2581,0,0,1,.48,4.8,21.2006,21.2006,0,0,1-.48,4.8h9.6A20.26,20.26,0,0,1,50.5837,93.5446Z"/>
    <path class="cls-3" d="M76.7429,88.7444h12a20.261,20.261,0,0,1,.48,4.8,21.21,21.21,0,0,1-.48,4.8h-19.2a21.1237,21.1237,0,0,1-.48-4.8,20.182,20.182,0,0,1,.48-4.8h-6a21.1206,21.1206,0,0,1-.48-4.8,20.1849,20.1849,0,0,1,.48-4.8,21.12,21.12,0,0,1-.48-4.8,20.1793,20.1793,0,0,1,.48-4.8,21.1234,21.1234,0,0,1-.48-4.8,20.1822,20.1822,0,0,1,.48-4.8,21.1234,21.1234,0,0,1-.48-4.8,20.1807,20.1807,0,0,1,.48-4.8h9.6a20.26,20.26,0,0,1,.48,4.8,21.21,21.21,0,0,1-.48,4.8,20.2612,20.2612,0,0,1,.48,4.8,21.21,21.21,0,0,1-.48,4.8,20.2583,20.2583,0,0,1,.48,4.8,21.2065,21.2065,0,0,1-.48,4.8h3.6a20.2639,20.2639,0,0,1,.48,4.8A21.2068,21.2068,0,0,1,76.7429,88.7444Zm25.68-24a21.2383,21.2383,0,0,1-.48,4.8,20.2845,20.2845,0,0,1,.48,4.8,21.2352,21.2352,0,0,1-.48,4.8,20.29,20.29,0,0,1,.48,4.8,21.2355,21.2355,0,0,1-.48,4.8,20.2873,20.2873,0,0,1,.48,4.8,21.2386,21.2386,0,0,1-.48,4.8h-9.6a21.0953,21.0953,0,0,1-.48-4.8,20.156,20.156,0,0,1,.48-4.8h-3.6a21.0922,21.0922,0,0,1-.48-4.8,20.1589,20.1589,0,0,1,.48-4.8h3.6a21.0919,21.0919,0,0,1-.48-4.8,20.1533,20.1533,0,0,1,.48-4.8,21.095,21.095,0,0,1-.48-4.8,20.1562,20.1562,0,0,1,.48-4.8,21.095,21.095,0,0,1-.48-4.8,20.1547,20.1547,0,0,1,.48-4.8h9.6a20.286,20.286,0,0,1,.48,4.8,21.2383,21.2383,0,0,1-.48,4.8A20.2875,20.2875,0,0,1,102.423,64.7444Z"/>
    <path class="cls-3" d="M148.9826,79.1443a20.2843,20.2843,0,0,1,.48,4.8,21.2293,21.2293,0,0,1-.48,4.8h-4.8a20.2552,20.2552,0,0,1,.48,4.8,21.2037,21.2037,0,0,1-.48,4.8h-24a21.1237,21.1237,0,0,1-.48-4.8,20.182,20.182,0,0,1,.48-4.8h-4.8a21.0922,21.0922,0,0,1-.48-4.8,20.1589,20.1589,0,0,1,.48-4.8h-4.8a21.12,21.12,0,0,1-.48-4.8,20.1793,20.1793,0,0,1,.48-4.8h4.8a21.095,21.095,0,0,1-.48-4.8,20.1562,20.1562,0,0,1,.48-4.8h4.8a21.1234,21.1234,0,0,1-.48-4.8,20.1807,20.1807,0,0,1,.48-4.8h24a20.2539,20.2539,0,0,1,.48,4.8,21.2034,21.2034,0,0,1-.48,4.8h4.8a20.2816,20.2816,0,0,1,.48,4.8,21.2321,21.2321,0,0,1-.48,4.8h-9.6a21.095,21.095,0,0,1-.48-4.8,20.1562,20.1562,0,0,1,.48-4.8h-14.4a20.2816,20.2816,0,0,1,.48,4.8,21.2321,21.2321,0,0,1-.48,4.8h-4.8a20.2524,20.2524,0,0,1,.48,4.8,21.2,21.2,0,0,1-.48,4.8h4.8a20.2843,20.2843,0,0,1,.48,4.8,21.2293,21.2293,0,0,1-.48,4.8h14.4a21.0922,21.0922,0,0,1-.48-4.8,20.1589,20.1589,0,0,1,.48-4.8Z"/>
    <path class="cls-3" d="M196.5017,93.5446a21.2381,21.2381,0,0,1-.48,4.8h-9.6a21.0953,21.0953,0,0,1-.48-4.8,20.156,20.156,0,0,1,.48-4.8h-4.8a21.1206,21.1206,0,0,1-.48-4.8,20.1849,20.1849,0,0,1,.48-4.8h-14.4a20.2633,20.2633,0,0,1,.48,4.8,21.2063,21.2063,0,0,1-.48,4.8h14.4a20.26,20.26,0,0,1,.48,4.8,21.2094,21.2094,0,0,1-.48,4.8h-19.2a21.0953,21.0953,0,0,1-.48-4.8,20.156,20.156,0,0,1,.48-4.8h-4.8a21.1206,21.1206,0,0,1-.48-4.8,20.1849,20.1849,0,0,1,.48-4.8h4.8a21.0919,21.0919,0,0,1-.48-4.8,20.1533,20.1533,0,0,1,.48-4.8h19.2a21.1234,21.1234,0,0,1-.48-4.8,20.1822,20.1822,0,0,1,.48-4.8h-16.8a21.095,21.095,0,0,1-.48-4.8,20.1547,20.1547,0,0,1,.48-4.8h21.6a20.2591,20.2591,0,0,1,.48,4.8,21.2091,21.2091,0,0,1-.48,4.8h4.8a20.2606,20.2606,0,0,1,.48,4.8,21.2091,21.2091,0,0,1-.48,4.8,20.2577,20.2577,0,0,1,.48,4.8,21.206,21.206,0,0,1-.48,4.8,20.2633,20.2633,0,0,1,.48,4.8,21.2063,21.2063,0,0,1-.48,4.8h4.8A20.2867,20.2867,0,0,1,196.5017,93.5446Z"/>
    <path class="cls-3" d="M240.6608,88.7444h-4.8a20.2552,20.2552,0,0,1,.48,4.8,21.2037,21.2037,0,0,1-.48,4.8h-26.4a21.0953,21.0953,0,0,1-.48-4.8,20.156,20.156,0,0,1,.48-4.8h21.6a21.0922,21.0922,0,0,1-.48-4.8,20.1589,20.1589,0,0,1,.48-4.8h-19.2a21.0919,21.0919,0,0,1-.48-4.8,20.1533,20.1533,0,0,1,.48-4.8h-4.8a21.095,21.095,0,0,1-.48-4.8,20.1562,20.1562,0,0,1,.48-4.8h4.8a21.095,21.095,0,0,1-.48-4.8,20.1547,20.1547,0,0,1,.48-4.8h26.4a20.2539,20.2539,0,0,1,.48,4.8,21.2034,21.2034,0,0,1-.48,4.8h-21.6a20.2554,20.2554,0,0,1,.48,4.8,21.2034,21.2034,0,0,1-.48,4.8h19.2a20.2524,20.2524,0,0,1,.48,4.8,21.2,21.2,0,0,1-.48,4.8h4.8a20.2581,20.2581,0,0,1,.48,4.8A21.2006,21.2006,0,0,1,240.6608,88.7444Z"/>
    <path class="cls-3" d="M276.9,88.7444a20.26,20.26,0,0,1,.48,4.8,21.2094,21.2094,0,0,1-.48,4.8h-12a21.0953,21.0953,0,0,1-.48-4.8,20.156,20.156,0,0,1,.48-4.8,21.0922,21.0922,0,0,1-.48-4.8,20.1589,20.1589,0,0,1,.48-4.8h12a20.2633,20.2633,0,0,1,.48,4.8A21.2063,21.2063,0,0,1,276.9,88.7444Z"/>
    <path class="cls-4" d="M332.819,93.5446a21.21,21.21,0,0,1-.48,4.8h-28.8a21.0957,21.0957,0,0,1-.48-4.8,20.1565,20.1565,0,0,1,.48-4.8h9.6a21.0927,21.0927,0,0,1-.48-4.8,20.1594,20.1594,0,0,1,.48-4.8,21.0923,21.0923,0,0,1-.48-4.8,20.1538,20.1538,0,0,1,.48-4.8,21.0954,21.0954,0,0,1-.48-4.8,20.1567,20.1567,0,0,1,.48-4.8,21.0954,21.0954,0,0,1-.48-4.8,20.1552,20.1552,0,0,1,.48-4.8,21.0957,21.0957,0,0,1-.48-4.8,20.1565,20.1565,0,0,1,.48-4.8h-7.2a21.0922,21.0922,0,0,1-.48-4.8,20.1589,20.1589,0,0,1,.48-4.8h16.8a20.2639,20.2639,0,0,1,.48,4.8,21.2068,21.2068,0,0,1-.48,4.8,20.261,20.261,0,0,1,.48,4.8,21.21,21.21,0,0,1-.48,4.8,20.26,20.26,0,0,1,.48,4.8,21.21,21.21,0,0,1-.48,4.8,20.2612,20.2612,0,0,1,.48,4.8,21.21,21.21,0,0,1-.48,4.8,20.2583,20.2583,0,0,1,.48,4.8,21.2065,21.2065,0,0,1-.48,4.8,20.2639,20.2639,0,0,1,.48,4.8,21.2068,21.2068,0,0,1-.48,4.8h9.6A20.261,20.261,0,0,1,332.819,93.5446Z"/>
    <path class="cls-4" d="M384.6589,93.5446a21.2324,21.2324,0,0,1-.48,4.8h-9.6a21.0953,21.0953,0,0,1-.48-4.8,20.156,20.156,0,0,1,.48-4.8h-4.8a21.1206,21.1206,0,0,1-.48-4.8,20.1849,20.1849,0,0,1,.48-4.8h-14.4a20.2581,20.2581,0,0,1,.48,4.8,21.2006,21.2006,0,0,1-.48,4.8h14.4a20.2552,20.2552,0,0,1,.48,4.8,21.2037,21.2037,0,0,1-.48,4.8h-19.2a21.0953,21.0953,0,0,1-.48-4.8,20.156,20.156,0,0,1,.48-4.8h-4.8a21.1206,21.1206,0,0,1-.48-4.8,20.1849,20.1849,0,0,1,.48-4.8h4.8a21.0919,21.0919,0,0,1-.48-4.8,20.1533,20.1533,0,0,1,.48-4.8h19.2a21.1234,21.1234,0,0,1-.48-4.8,20.1822,20.1822,0,0,1,.48-4.8h-16.8a21.095,21.095,0,0,1-.48-4.8,20.1547,20.1547,0,0,1,.48-4.8h21.6a20.2591,20.2591,0,0,1,.48,4.8,21.2091,21.2091,0,0,1-.48,4.8h4.8a20.2554,20.2554,0,0,1,.48,4.8,21.2034,21.2034,0,0,1-.48,4.8,20.2524,20.2524,0,0,1,.48,4.8,21.2,21.2,0,0,1-.48,4.8,20.2581,20.2581,0,0,1,.48,4.8,21.2006,21.2006,0,0,1-.48,4.8h4.8A20.2814,20.2814,0,0,1,384.6589,93.5446Z"/>
    <path class="cls-4" d="M402.8976,83.9445a21.2068,21.2068,0,0,1-.48,4.8h-4.8a20.261,20.261,0,0,1,.48,4.8,21.21,21.21,0,0,1-.48,4.8h-4.8a21.1237,21.1237,0,0,1-.48-4.8,20.182,20.182,0,0,1,.48-4.8,21.1206,21.1206,0,0,1-.48-4.8,20.1849,20.1849,0,0,1,.48-4.8,21.12,21.12,0,0,1-.48-4.8,20.1793,20.1793,0,0,1,.48-4.8,21.1234,21.1234,0,0,1-.48-4.8,20.1822,20.1822,0,0,1,.48-4.8,21.1234,21.1234,0,0,1-.48-4.8,20.1807,20.1807,0,0,1,.48-4.8,21.1237,21.1237,0,0,1-.48-4.8,20.182,20.182,0,0,1,.48-4.8,21.1206,21.1206,0,0,1-.48-4.8,20.1849,20.1849,0,0,1,.48-4.8h9.6a20.2639,20.2639,0,0,1,.48,4.8,21.2068,21.2068,0,0,1-.48,4.8,20.261,20.261,0,0,1,.48,4.8,21.21,21.21,0,0,1-.48,4.8,20.26,20.26,0,0,1,.48,4.8,21.21,21.21,0,0,1-.48,4.8h4.8a20.2875,20.2875,0,0,1,.48,4.8,21.2383,21.2383,0,0,1-.48,4.8h-4.8a20.2583,20.2583,0,0,1,.48,4.8,21.2065,21.2065,0,0,1-.48,4.8A20.2639,20.2639,0,0,1,402.8976,83.9445Zm-.48,4.8h14.4a20.261,20.261,0,0,1,.48,4.8,21.21,21.21,0,0,1-.48,4.8h-14.4a21.1237,21.1237,0,0,1-.48-4.8A20.182,20.182,0,0,1,402.4177,88.7444Zm28.8-9.6h-4.8a20.2639,20.2639,0,0,1,.48,4.8,21.2068,21.2068,0,0,1-.48,4.8h-9.6a21.1206,21.1206,0,0,1-.48-4.8,20.1849,20.1849,0,0,1,.48-4.8h4.8a21.0919,21.0919,0,0,1-.48-4.8,20.1533,20.1533,0,0,1,.48-4.8h-4.8a21.1234,21.1234,0,0,1-.48-4.8,20.1822,20.1822,0,0,1,.48-4.8h-9.6a21.095,21.095,0,0,1-.48-4.8,20.1547,20.1547,0,0,1,.48-4.8h14.4a20.26,20.26,0,0,1,.48,4.8,21.21,21.21,0,0,1-.48,4.8h4.8a20.2612,20.2612,0,0,1,.48,4.8,21.21,21.21,0,0,1-.48,4.8h4.8a20.2845,20.2845,0,0,1,.48,4.8A21.2352,21.2352,0,0,1,431.218,79.1443Z"/>
    <path class="cls-4" d="M475.8571,88.7444h-4.8a20.2552,20.2552,0,0,1,.48,4.8,21.2037,21.2037,0,0,1-.48,4.8h-26.4a21.0953,21.0953,0,0,1-.48-4.8,20.156,20.156,0,0,1,.48-4.8h21.6a21.0922,21.0922,0,0,1-.48-4.8,20.1589,20.1589,0,0,1,.48-4.8h-19.2a21.0919,21.0919,0,0,1-.48-4.8,20.1533,20.1533,0,0,1,.48-4.8h-4.8a21.095,21.095,0,0,1-.48-4.8,20.1562,20.1562,0,0,1,.48-4.8h4.8a21.095,21.095,0,0,1-.48-4.8,20.1547,20.1547,0,0,1,.48-4.8h26.4a20.2539,20.2539,0,0,1,.48,4.8,21.2034,21.2034,0,0,1-.48,4.8h-21.6a20.2554,20.2554,0,0,1,.48,4.8,21.2034,21.2034,0,0,1-.48,4.8h19.2a20.2524,20.2524,0,0,1,.48,4.8,21.2,21.2,0,0,1-.48,4.8h4.8a20.2581,20.2581,0,0,1,.48,4.8A21.2006,21.2006,0,0,1,475.8571,88.7444Z"/>
    <path class="cls-3" d="M510.7766,93.5446a21.2381,21.2381,0,0,1-.48,4.8h-6a21.0953,21.0953,0,0,1-.48-4.8,20.156,20.156,0,0,1,.48-4.8h-3a21.0922,21.0922,0,0,1-.48-4.8,20.1589,20.1589,0,0,1,.48-4.8h-3.6a21.0919,21.0919,0,0,1-.48-4.8,20.1533,20.1533,0,0,1,.48-4.8,21.095,21.095,0,0,1-.48-4.8,20.1562,20.1562,0,0,1,.48-4.8,21.095,21.095,0,0,1-.48-4.8,20.1547,20.1547,0,0,1,.48-4.8h3.6a21.0953,21.0953,0,0,1-.48-4.8,20.156,20.156,0,0,1,.48-4.8h3a21.0922,21.0922,0,0,1-.48-4.8,20.1589,20.1589,0,0,1,.48-4.8h6a20.29,20.29,0,0,1,.48,4.8,21.235,21.235,0,0,1-.48,4.8h-3a20.2867,20.2867,0,0,1,.48,4.8,21.2381,21.2381,0,0,1-.48,4.8,20.2854,20.2854,0,0,1,.48,4.8,21.2378,21.2378,0,0,1-.48,4.8,20.2869,20.2869,0,0,1,.48,4.8,21.2378,21.2378,0,0,1-.48,4.8,20.284,20.284,0,0,1,.48,4.8,21.2347,21.2347,0,0,1-.48,4.8,20.29,20.29,0,0,1,.48,4.8,21.235,21.235,0,0,1-.48,4.8h3A20.2867,20.2867,0,0,1,510.7766,93.5446Zm5.52-62.4h-6a21.0919,21.0919,0,0,1-.48-4.8,20.1533,20.1533,0,0,1,.48-4.8h6a20.284,20.284,0,0,1,.48,4.8A21.2347,21.2347,0,0,1,516.2966,31.1443Zm0,67.2a20.2743,20.2743,0,0,1,.48,4.8,21.2627,21.2627,0,0,1-.48,4.8h-6a21.12,21.12,0,0,1-.48-4.8,20.1437,20.1437,0,0,1,.48-4.8Z"/>
    <path class="cls-5" d="M101.9431,149.9445h-3.6a20.2612,20.2612,0,0,1,.48,4.8,21.21,21.21,0,0,1-.48,4.8h-3.6a20.2583,20.2583,0,0,1,.48,4.8,21.2065,21.2065,0,0,1-.48,4.8h-2.4a20.2639,20.2639,0,0,1,.48,4.8,21.2068,21.2068,0,0,1-.48,4.8h-4.8a20.261,20.261,0,0,1,.48,4.8,21.21,21.21,0,0,1-.48,4.8h-9.6a21.0953,21.0953,0,0,1-.48-4.8,20.156,20.156,0,0,1,.48-4.8h-4.8a21.1206,21.1206,0,0,1-.48-4.8,20.1849,20.1849,0,0,1,.48-4.8h-2.4a21.0919,21.0919,0,0,1-.48-4.8,20.1533,20.1533,0,0,1,.48-4.8h-3.6a21.1234,21.1234,0,0,1-.48-4.8,20.1822,20.1822,0,0,1,.48-4.8h-3.6a21.1234,21.1234,0,0,1-.48-4.8,20.1807,20.1807,0,0,1,.48-4.8h9.6a20.26,20.26,0,0,1,.48,4.8,21.21,21.21,0,0,1-.48,4.8h3.6a20.2612,20.2612,0,0,1,.48,4.8,21.21,21.21,0,0,1-.48,4.8h3.6a20.2583,20.2583,0,0,1,.48,4.8,21.2065,21.2065,0,0,1-.48,4.8h4.8a21.12,21.12,0,0,1-.48-4.8,20.1793,20.1793,0,0,1,.48-4.8h3.6a21.095,21.095,0,0,1-.48-4.8,20.1562,20.1562,0,0,1,.48-4.8h3.6a21.095,21.095,0,0,1-.48-4.8,20.1547,20.1547,0,0,1,.48-4.8h9.6a20.286,20.286,0,0,1,.48,4.8A21.2383,21.2383,0,0,1,101.9431,149.9445Z"/>
    <path class="cls-5" d="M123.7824,178.7444h12a20.2552,20.2552,0,0,1,.48,4.8,21.2037,21.2037,0,0,1-.48,4.8h-19.2a21.1237,21.1237,0,0,1-.48-4.8,20.182,20.182,0,0,1,.48-4.8h-6a21.1206,21.1206,0,0,1-.48-4.8,20.1849,20.1849,0,0,1,.48-4.8,21.12,21.12,0,0,1-.48-4.8,20.1793,20.1793,0,0,1,.48-4.8,21.1234,21.1234,0,0,1-.48-4.8,20.1822,20.1822,0,0,1,.48-4.8,21.1234,21.1234,0,0,1-.48-4.8,20.1807,20.1807,0,0,1,.48-4.8h9.6a20.2539,20.2539,0,0,1,.48,4.8,21.2034,21.2034,0,0,1-.48,4.8,20.2554,20.2554,0,0,1,.48,4.8,21.2034,21.2034,0,0,1-.48,4.8,20.2524,20.2524,0,0,1,.48,4.8,21.2,21.2,0,0,1-.48,4.8h3.6a20.2581,20.2581,0,0,1,.48,4.8A21.2006,21.2006,0,0,1,123.7824,178.7444Zm25.68-24a21.2321,21.2321,0,0,1-.48,4.8,20.2787,20.2787,0,0,1,.48,4.8,21.229,21.229,0,0,1-.48,4.8,20.2843,20.2843,0,0,1,.48,4.8,21.2293,21.2293,0,0,1-.48,4.8,20.2814,20.2814,0,0,1,.48,4.8,21.2324,21.2324,0,0,1-.48,4.8h-9.6a21.0953,21.0953,0,0,1-.48-4.8,20.156,20.156,0,0,1,.48-4.8h-3.6a21.0922,21.0922,0,0,1-.48-4.8,20.1589,20.1589,0,0,1,.48-4.8h3.6a21.0919,21.0919,0,0,1-.48-4.8,20.1533,20.1533,0,0,1,.48-4.8,21.095,21.095,0,0,1-.48-4.8,20.1562,20.1562,0,0,1,.48-4.8,21.095,21.095,0,0,1-.48-4.8,20.1547,20.1547,0,0,1,.48-4.8h9.6a20.28,20.28,0,0,1,.48,4.8,21.2321,21.2321,0,0,1-.48,4.8A20.2816,20.2816,0,0,1,149.4626,154.7444Z"/>
    <path class="cls-5" d="M196.0217,159.5446a20.284,20.284,0,0,1,.48,4.8,21.2347,21.2347,0,0,1-.48,4.8h-25.2a20.2633,20.2633,0,0,1,.48,4.8,21.2063,21.2063,0,0,1-.48,4.8h20.4a20.26,20.26,0,0,1,.48,4.8,21.2094,21.2094,0,0,1-.48,4.8h-24a21.1237,21.1237,0,0,1-.48-4.8,20.182,20.182,0,0,1,.48-4.8h-6a21.1206,21.1206,0,0,1-.48-4.8,20.1849,20.1849,0,0,1,.48-4.8h-3.6a21.12,21.12,0,0,1-.48-4.8,20.1793,20.1793,0,0,1,.48-4.8h3.6a21.1234,21.1234,0,0,1-.48-4.8,20.1822,20.1822,0,0,1,.48-4.8h6a21.1234,21.1234,0,0,1-.48-4.8,20.1807,20.1807,0,0,1,.48-4.8h24a20.2591,20.2591,0,0,1,.48,4.8,21.2091,21.2091,0,0,1-.48,4.8h4.8a20.2869,20.2869,0,0,1,.48,4.8A21.2378,21.2378,0,0,1,196.0217,159.5446Zm-10.08-4.8a20.1562,20.1562,0,0,1,.48-4.8h-15.6a20.2606,20.2606,0,0,1,.48,4.8,21.2091,21.2091,0,0,1-.48,4.8h15.6A21.095,21.095,0,0,1,185.9416,154.7444Z"/>
    <path class="cls-5" d="M240.6608,149.9445h-4.8a20.2554,20.2554,0,0,1,.48,4.8,21.2034,21.2034,0,0,1-.48,4.8h4.8a20.2524,20.2524,0,0,1,.48,4.8,21.2,21.2,0,0,1-.48,4.8,20.2581,20.2581,0,0,1,.48,4.8,21.2006,21.2006,0,0,1-.48,4.8h-4.8a20.2552,20.2552,0,0,1,.48,4.8,21.2037,21.2037,0,0,1-.48,4.8h-24a21.0953,21.0953,0,0,1-.48-4.8,20.156,20.156,0,0,1,.48-4.8h-4.8a21.0922,21.0922,0,0,1-.48-4.8,20.1589,20.1589,0,0,1,.48-4.8h9.6a20.2581,20.2581,0,0,1,.48,4.8,21.2006,21.2006,0,0,1-.48,4.8h14.4a21.0922,21.0922,0,0,1-.48-4.8,20.1589,20.1589,0,0,1,.48-4.8,21.0919,21.0919,0,0,1-.48-4.8,20.1533,20.1533,0,0,1,.48-4.8h-12a21.095,21.095,0,0,1-.48-4.8,20.1562,20.1562,0,0,1,.48-4.8h12a21.095,21.095,0,0,1-.48-4.8,20.1547,20.1547,0,0,1,.48-4.8,21.0953,21.0953,0,0,1-.48-4.8,20.156,20.156,0,0,1,.48-4.8h-14.4a20.2552,20.2552,0,0,1,.48,4.8,21.2037,21.2037,0,0,1-.48,4.8h-9.6a21.0953,21.0953,0,0,1-.48-4.8,20.156,20.156,0,0,1,.48-4.8h4.8a21.0922,21.0922,0,0,1-.48-4.8,20.1589,20.1589,0,0,1,.48-4.8h24a20.2581,20.2581,0,0,1,.48,4.8,21.2006,21.2006,0,0,1-.48,4.8h4.8a20.2552,20.2552,0,0,1,.48,4.8,21.2037,21.2037,0,0,1-.48,4.8,20.2539,20.2539,0,0,1,.48,4.8A21.2034,21.2034,0,0,1,240.6608,149.9445Z"/>
    <path class="cls-5" d="M282.9,149.9445a20.2606,20.2606,0,0,1,.48,4.8,21.2091,21.2091,0,0,1-.48,4.8h-24a21.095,21.095,0,0,1-.48-4.8,20.1562,20.1562,0,0,1,.48-4.8Z"/>
    <path class="cls-5" d="M337.1393,149.9445h-3.6a20.2554,20.2554,0,0,1,.48,4.8,21.2034,21.2034,0,0,1-.48,4.8h-3.6a20.2583,20.2583,0,0,1,.48,4.8,21.2065,21.2065,0,0,1-.48,4.8h-2.4a20.2581,20.2581,0,0,1,.48,4.8,21.2006,21.2006,0,0,1-.48,4.8h-4.8a20.261,20.261,0,0,1,.48,4.8,21.21,21.21,0,0,1-.48,4.8h-9.6a21.0957,21.0957,0,0,1-.48-4.8,20.1565,20.1565,0,0,1,.48-4.8h-4.8a21.1149,21.1149,0,0,1-.48-4.8,20.18,20.18,0,0,1,.48-4.8h-2.4a21.0919,21.0919,0,0,1-.48-4.8,20.1533,20.1533,0,0,1,.48-4.8h-3.6a21.1177,21.1177,0,0,1-.48-4.8,20.177,20.177,0,0,1,.48-4.8h-3.6a21.1177,21.1177,0,0,1-.48-4.8,20.1755,20.1755,0,0,1,.48-4.8h9.6a20.26,20.26,0,0,1,.48,4.8,21.21,21.21,0,0,1-.48,4.8h3.6a20.2612,20.2612,0,0,1,.48,4.8,21.21,21.21,0,0,1-.48,4.8h3.6a20.2524,20.2524,0,0,1,.48,4.8,21.2,21.2,0,0,1-.48,4.8h4.8a21.1146,21.1146,0,0,1-.48-4.8,20.1741,20.1741,0,0,1,.48-4.8h3.6a21.095,21.095,0,0,1-.48-4.8,20.1562,20.1562,0,0,1,.48-4.8h3.6a21.0954,21.0954,0,0,1-.48-4.8,20.1552,20.1552,0,0,1,.48-4.8h9.6a20.28,20.28,0,0,1,.48,4.8A21.2321,21.2321,0,0,1,337.1393,149.9445Z"/>
    <path class="cls-5" d="M379.8586,183.5446a21.2037,21.2037,0,0,1-.48,4.8h-28.8a21.0953,21.0953,0,0,1-.48-4.8,20.156,20.156,0,0,1,.48-4.8h9.6a21.0922,21.0922,0,0,1-.48-4.8,20.1589,20.1589,0,0,1,.48-4.8,21.0919,21.0919,0,0,1-.48-4.8,20.1533,20.1533,0,0,1,.48-4.8,21.095,21.095,0,0,1-.48-4.8,20.1562,20.1562,0,0,1,.48-4.8h-7.2a21.095,21.095,0,0,1-.48-4.8,20.1547,20.1547,0,0,1,.48-4.8h16.8a20.2539,20.2539,0,0,1,.48,4.8,21.2034,21.2034,0,0,1-.48,4.8,20.2554,20.2554,0,0,1,.48,4.8,21.2034,21.2034,0,0,1-.48,4.8,20.2524,20.2524,0,0,1,.48,4.8,21.2,21.2,0,0,1-.48,4.8,20.2581,20.2581,0,0,1,.48,4.8,21.2006,21.2006,0,0,1-.48,4.8h9.6A20.2552,20.2552,0,0,1,379.8586,183.5446Zm-19.68-52.8a21.0922,21.0922,0,0,1-.48-4.8,20.1589,20.1589,0,0,1,.48-4.8h9.6a20.2581,20.2581,0,0,1,.48,4.8,21.2006,21.2006,0,0,1-.48,4.8Z"/>
    <path class="cls-5" d="M431.6979,154.7444a21.2383,21.2383,0,0,1-.48,4.8h-9.6a21.095,21.095,0,0,1-.48-4.8,20.1562,20.1562,0,0,1,.48-4.8h-8.4a20.2875,20.2875,0,0,1,.48,4.8,21.2383,21.2383,0,0,1-.48,4.8h-3.6a20.2583,20.2583,0,0,1,.48,4.8,21.2065,21.2065,0,0,1-.48,4.8,20.2639,20.2639,0,0,1,.48,4.8,21.2068,21.2068,0,0,1-.48,4.8h7.2a20.261,20.261,0,0,1,.48,4.8,21.21,21.21,0,0,1-.48,4.8h-24a21.1237,21.1237,0,0,1-.48-4.8,20.182,20.182,0,0,1,.48-4.8h7.2a21.0922,21.0922,0,0,1-.48-4.8,20.1589,20.1589,0,0,1,.48-4.8,21.0919,21.0919,0,0,1-.48-4.8,20.1533,20.1533,0,0,1,.48-4.8,21.095,21.095,0,0,1-.48-4.8,20.1562,20.1562,0,0,1,.48-4.8h-7.2a21.1234,21.1234,0,0,1-.48-4.8,20.1807,20.1807,0,0,1,.48-4.8h12a20.26,20.26,0,0,1,.48,4.8,21.21,21.21,0,0,1-.48,4.8h4.8a21.095,21.095,0,0,1-.48-4.8,20.1547,20.1547,0,0,1,.48-4.8h18a20.26,20.26,0,0,1,.48,4.8,21.21,21.21,0,0,1-.48,4.8h3.6A20.2875,20.2875,0,0,1,431.6979,154.7444Z"/>
    <path class="cls-5" d="M473.4572,178.7444a20.2552,20.2552,0,0,1,.48,4.8,21.2037,21.2037,0,0,1-.48,4.8h-19.2a21.0953,21.0953,0,0,1-.48-4.8,20.156,20.156,0,0,1,.48-4.8h-4.8a21.1206,21.1206,0,0,1-.48-4.8,20.1849,20.1849,0,0,1,.48-4.8,21.12,21.12,0,0,1-.48-4.8,20.1793,20.1793,0,0,1,.48-4.8,21.1234,21.1234,0,0,1-.48-4.8,20.1822,20.1822,0,0,1,.48-4.8h-9.6a21.1234,21.1234,0,0,1-.48-4.8,20.1807,20.1807,0,0,1,.48-4.8h9.6a21.1237,21.1237,0,0,1-.48-4.8,20.182,20.182,0,0,1,.48-4.8,21.1206,21.1206,0,0,1-.48-4.8,20.1849,20.1849,0,0,1,.48-4.8h9.6a20.2581,20.2581,0,0,1,.48,4.8,21.2006,21.2006,0,0,1-.48,4.8,20.2552,20.2552,0,0,1,.48,4.8,21.2037,21.2037,0,0,1-.48,4.8h14.4a20.2539,20.2539,0,0,1,.48,4.8,21.2034,21.2034,0,0,1-.48,4.8h-14.4a20.2554,20.2554,0,0,1,.48,4.8,21.2034,21.2034,0,0,1-.48,4.8,20.2524,20.2524,0,0,1,.48,4.8,21.2,21.2,0,0,1-.48,4.8,20.2581,20.2581,0,0,1,.48,4.8,21.2006,21.2006,0,0,1-.48,4.8Z"/>
    <path class="cls-5" d="M500.0964,178.7444h12a20.26,20.26,0,0,1,.48,4.8,21.2094,21.2094,0,0,1-.48,4.8h-19.2a21.1237,21.1237,0,0,1-.48-4.8,20.182,20.182,0,0,1,.48-4.8h-6a21.1206,21.1206,0,0,1-.48-4.8,20.1849,20.1849,0,0,1,.48-4.8,21.12,21.12,0,0,1-.48-4.8,20.1793,20.1793,0,0,1,.48-4.8,21.1234,21.1234,0,0,1-.48-4.8,20.1822,20.1822,0,0,1,.48-4.8,21.1234,21.1234,0,0,1-.48-4.8,20.1807,20.1807,0,0,1,.48-4.8h9.6a20.2591,20.2591,0,0,1,.48,4.8,21.2091,21.2091,0,0,1-.48,4.8,20.2606,20.2606,0,0,1,.48,4.8,21.2091,21.2091,0,0,1-.48,4.8,20.2577,20.2577,0,0,1,.48,4.8,21.206,21.206,0,0,1-.48,4.8h3.6a20.2633,20.2633,0,0,1,.48,4.8A21.2063,21.2063,0,0,1,500.0964,178.7444Zm25.68-24a21.2378,21.2378,0,0,1-.48,4.8,20.284,20.284,0,0,1,.48,4.8,21.2347,21.2347,0,0,1-.48,4.8,20.29,20.29,0,0,1,.48,4.8,21.235,21.235,0,0,1-.48,4.8,20.2867,20.2867,0,0,1,.48,4.8,21.2381,21.2381,0,0,1-.48,4.8h-9.6a21.0953,21.0953,0,0,1-.48-4.8,20.156,20.156,0,0,1,.48-4.8h-3.6a21.0922,21.0922,0,0,1-.48-4.8,20.1589,20.1589,0,0,1,.48-4.8h3.6a21.0919,21.0919,0,0,1-.48-4.8,20.1533,20.1533,0,0,1,.48-4.8,21.095,21.095,0,0,1-.48-4.8,20.1562,20.1562,0,0,1,.48-4.8,21.095,21.095,0,0,1-.48-4.8,20.1547,20.1547,0,0,1,.48-4.8h9.6a20.2854,20.2854,0,0,1,.48,4.8,21.2378,21.2378,0,0,1-.48,4.8A20.2869,20.2869,0,0,1,525.7766,154.7444Z"/>
    <path class="cls-5" d="M572.8161,183.5446a21.2324,21.2324,0,0,1-.48,4.8h-9.6a21.0953,21.0953,0,0,1-.48-4.8,20.156,20.156,0,0,1,.48-4.8h-4.8a21.1211,21.1211,0,0,1-.48-4.8,20.1854,20.1854,0,0,1,.48-4.8h-14.4a20.2581,20.2581,0,0,1,.48,4.8,21.2006,21.2006,0,0,1-.48,4.8h14.4a20.2552,20.2552,0,0,1,.48,4.8,21.2037,21.2037,0,0,1-.48,4.8h-19.2a21.0953,21.0953,0,0,1-.48-4.8,20.156,20.156,0,0,1,.48-4.8h-4.8a21.1211,21.1211,0,0,1-.48-4.8,20.1854,20.1854,0,0,1,.48-4.8h4.8a21.0919,21.0919,0,0,1-.48-4.8,20.1533,20.1533,0,0,1,.48-4.8h19.2a21.1238,21.1238,0,0,1-.48-4.8,20.1827,20.1827,0,0,1,.48-4.8h-16.8a21.095,21.095,0,0,1-.48-4.8,20.1547,20.1547,0,0,1,.48-4.8h21.6a20.2539,20.2539,0,0,1,.48,4.8,21.2034,21.2034,0,0,1-.48,4.8h4.8a20.2554,20.2554,0,0,1,.48,4.8,21.2034,21.2034,0,0,1-.48,4.8,20.2524,20.2524,0,0,1,.48,4.8,21.2,21.2,0,0,1-.48,4.8,20.2581,20.2581,0,0,1,.48,4.8,21.2006,21.2006,0,0,1-.48,4.8h4.8A20.2814,20.2814,0,0,1,572.8161,183.5446Z"/>
    <path class="cls-5" d="M615.0549,183.5446a21.2094,21.2094,0,0,1-.48,4.8h-28.8a21.0953,21.0953,0,0,1-.48-4.8,20.156,20.156,0,0,1,.48-4.8h9.6a21.0922,21.0922,0,0,1-.48-4.8,20.1589,20.1589,0,0,1,.48-4.8,21.0919,21.0919,0,0,1-.48-4.8,20.1533,20.1533,0,0,1,.48-4.8,21.095,21.095,0,0,1-.48-4.8,20.1562,20.1562,0,0,1,.48-4.8,21.095,21.095,0,0,1-.48-4.8,20.1547,20.1547,0,0,1,.48-4.8,21.0953,21.0953,0,0,1-.48-4.8,20.156,20.156,0,0,1,.48-4.8h-7.2a21.0922,21.0922,0,0,1-.48-4.8,20.1589,20.1589,0,0,1,.48-4.8h16.8a20.2633,20.2633,0,0,1,.48,4.8,21.2063,21.2063,0,0,1-.48,4.8,20.26,20.26,0,0,1,.48,4.8,21.2094,21.2094,0,0,1-.48,4.8,20.2591,20.2591,0,0,1,.48,4.8,21.2091,21.2091,0,0,1-.48,4.8,20.2606,20.2606,0,0,1,.48,4.8,21.2091,21.2091,0,0,1-.48,4.8,20.2577,20.2577,0,0,1,.48,4.8,21.206,21.206,0,0,1-.48,4.8,20.2633,20.2633,0,0,1,.48,4.8,21.2063,21.2063,0,0,1-.48,4.8h9.6A20.26,20.26,0,0,1,615.0549,183.5446Z"/>
    <path class="cls-5" d="M659.2145,149.9445a20.2554,20.2554,0,0,1,.48,4.8,21.2034,21.2034,0,0,1-.48,4.8h-24a21.0954,21.0954,0,0,1-.48-4.8,20.1567,20.1567,0,0,1,.48-4.8Z"/>
    <path class="cls-5" d="M711.0534,178.7444h-4.8a20.2552,20.2552,0,0,1,.48,4.8,21.2037,21.2037,0,0,1-.48,4.8h-26.4a21.0953,21.0953,0,0,1-.48-4.8,20.156,20.156,0,0,1,.48-4.8h21.6a21.0922,21.0922,0,0,1-.48-4.8,20.1589,20.1589,0,0,1,.48-4.8h-19.2a21.0919,21.0919,0,0,1-.48-4.8,20.1533,20.1533,0,0,1,.48-4.8h-4.8a21.095,21.095,0,0,1-.48-4.8,20.1562,20.1562,0,0,1,.48-4.8h4.8a21.095,21.095,0,0,1-.48-4.8,20.1547,20.1547,0,0,1,.48-4.8h26.4a20.2539,20.2539,0,0,1,.48,4.8,21.2034,21.2034,0,0,1-.48,4.8h-21.6a20.2554,20.2554,0,0,1,.48,4.8,21.2034,21.2034,0,0,1-.48,4.8h19.2a20.2524,20.2524,0,0,1,.48,4.8,21.2,21.2,0,0,1-.48,4.8h4.8a20.2581,20.2581,0,0,1,.48,4.8A21.2006,21.2006,0,0,1,711.0534,178.7444Z"/>
    <path class="cls-5" d="M760.4929,169.1443a20.2925,20.2925,0,0,1,.48,4.8,21.2373,21.2373,0,0,1-.48,4.8h-4.8a20.29,20.29,0,0,1,.4794,4.8,21.2408,21.2408,0,0,1-.4794,4.8h-24a21.0648,21.0648,0,0,1-.4805-4.8,20.1272,20.1272,0,0,1,.4805-4.8h-4.8008a21.1228,21.1228,0,0,1-.48-4.8,20.1877,20.1877,0,0,1,.48-4.8h-4.8a21.1225,21.1225,0,0,1-.4795-4.8,20.1821,20.1821,0,0,1,.4795-4.8h4.8a21.1256,21.1256,0,0,1-.48-4.8,20.185,20.185,0,0,1,.48-4.8h4.8008a21.0645,21.0645,0,0,1-.4805-4.8,20.1259,20.1259,0,0,1,.4805-4.8h24a20.2888,20.2888,0,0,1,.4794,4.8,21.24,21.24,0,0,1-.4794,4.8h4.8a20.29,20.29,0,0,1,.48,4.8,21.24,21.24,0,0,1-.48,4.8h-9.6006a21.1256,21.1256,0,0,1-.48-4.8,20.185,20.185,0,0,1,.48-4.8H736.4929a20.29,20.29,0,0,1,.48,4.8,21.24,21.24,0,0,1-.48,4.8h-4.8a20.2874,20.2874,0,0,1,.4794,4.8,21.2374,21.2374,0,0,1-.4794,4.8h4.8a20.2925,20.2925,0,0,1,.48,4.8,21.2373,21.2373,0,0,1-.48,4.8h14.3994a21.1228,21.1228,0,0,1-.48-4.8,20.1877,20.1877,0,0,1,.48-4.8Z"/>
    <path class="cls-5" d="M808.0114,154.7444a21.2343,21.2343,0,0,1-.48,4.8h-9.6006a21.1256,21.1256,0,0,1-.4795-4.8,20.185,20.185,0,0,1,.4795-4.8h-8.3994a20.2845,20.2845,0,0,1,.48,4.8,21.2343,21.2343,0,0,1-.48,4.8h-3.6006a20.2234,20.2234,0,0,1,.4805,4.8,21.1694,21.1694,0,0,1-.4805,4.8,20.229,20.229,0,0,1,.4805,4.8,21.17,21.17,0,0,1-.4805,4.8h7.2a20.2261,20.2261,0,0,1,.4805,4.8,21.1728,21.1728,0,0,1-.4805,4.8h-24a21.1259,21.1259,0,0,1-.4795-4.8,20.1848,20.1848,0,0,1,.4795-4.8h7.2a21.1189,21.1189,0,0,1-.48-4.8,20.1826,20.1826,0,0,1,.48-4.8,21.1186,21.1186,0,0,1-.48-4.8,20.177,20.177,0,0,1,.48-4.8,21.1217,21.1217,0,0,1-.48-4.8,20.18,20.18,0,0,1,.48-4.8h-7.2a21.1256,21.1256,0,0,1-.4795-4.8,20.1835,20.1835,0,0,1,.4795-4.8h12a20.2248,20.2248,0,0,1,.4805,4.8,21.1725,21.1725,0,0,1-.4805,4.8h4.8a21.1256,21.1256,0,0,1-.4795-4.8,20.1835,20.1835,0,0,1,.4795-4.8h18a20.2248,20.2248,0,0,1,.4805,4.8,21.1725,21.1725,0,0,1-.4805,4.8h3.6006A20.2845,20.2845,0,0,1,808.0114,154.7444Z"/>
    <path class="cls-5" d="M854.572,169.1443h-3.6006a20.2348,20.2348,0,0,1,.48,4.8,21.1759,21.1759,0,0,1-.48,4.8h-6a20.2319,20.2319,0,0,1,.48,4.8,21.179,21.179,0,0,1-.48,4.8H825.7722a21.0648,21.0648,0,0,1-.4805-4.8,20.1272,20.1272,0,0,1,.4805-4.8h-6a21.0617,21.0617,0,0,1-.4805-4.8,20.13,20.13,0,0,1,.4805-4.8h-3.6006a21.1225,21.1225,0,0,1-.48-4.8,20.1821,20.1821,0,0,1,.48-4.8h3.6006a21.0645,21.0645,0,0,1-.4805-4.8,20.1274,20.1274,0,0,1,.4805-4.8h6a21.0645,21.0645,0,0,1-.4805-4.8,20.1259,20.1259,0,0,1,.4805-4.8h19.1992a20.2306,20.2306,0,0,1,.48,4.8,21.1787,21.1787,0,0,1-.48,4.8h6a20.2321,20.2321,0,0,1,.48,4.8,21.1787,21.1787,0,0,1-.48,4.8h3.6006a20.2868,20.2868,0,0,1,.48,4.8A21.2369,21.2369,0,0,1,854.572,169.1443Zm-9.6006,0a21.1225,21.1225,0,0,1-.48-4.8,20.1821,20.1821,0,0,1,.48-4.8h-3.6a21.1212,21.1212,0,0,1-.4805-4.8,20.1793,20.1793,0,0,1,.4805-4.8h-12a20.2846,20.2846,0,0,1,.48,4.8,21.2361,21.2361,0,0,1-.48,4.8h-3.6a20.2868,20.2868,0,0,1,.48,4.8,21.2369,21.2369,0,0,1-.48,4.8h3.6a20.2873,20.2873,0,0,1,.48,4.8,21.2333,21.2333,0,0,1-.48,4.8h12a21.1184,21.1184,0,0,1-.4805-4.8,20.182,20.182,0,0,1,.4805-4.8Z"/>
    <path class="cls-5" d="M897.2907,183.5446a21.2346,21.2346,0,0,1-.48,4.8H868.01a21.1259,21.1259,0,0,1-.48-4.8,20.1848,20.1848,0,0,1,.48-4.8h9.6006a21.0622,21.0622,0,0,1-.48-4.8,20.1307,20.1307,0,0,1,.48-4.8,21.0618,21.0618,0,0,1-.48-4.8,20.1251,20.1251,0,0,1,.48-4.8,21.0649,21.0649,0,0,1-.48-4.8,20.128,20.128,0,0,1,.48-4.8,21.0649,21.0649,0,0,1-.48-4.8,20.1265,20.1265,0,0,1,.48-4.8,21.0652,21.0652,0,0,1-.48-4.8,20.1278,20.1278,0,0,1,.48-4.8h-7.2a21.1189,21.1189,0,0,1-.48-4.8,20.1826,20.1826,0,0,1,.48-4.8h16.8a20.229,20.229,0,0,1,.4805,4.8,21.17,21.17,0,0,1-.4805,4.8,20.2261,20.2261,0,0,1,.4805,4.8,21.1728,21.1728,0,0,1-.4805,4.8,20.2248,20.2248,0,0,1,.4805,4.8,21.1725,21.1725,0,0,1-.4805,4.8,20.2263,20.2263,0,0,1,.4805,4.8,21.1725,21.1725,0,0,1-.4805,4.8,20.2234,20.2234,0,0,1,.4805,4.8,21.1694,21.1694,0,0,1-.4805,4.8,20.229,20.229,0,0,1,.4805,4.8,21.17,21.17,0,0,1-.4805,4.8h9.6006A20.2843,20.2843,0,0,1,897.2907,183.5446Z"/>
    <path class="cls-5" d="M944.33,183.5446a21.24,21.24,0,0,1-.48,4.8H915.05a21.1259,21.1259,0,0,1-.4795-4.8,20.1848,20.1848,0,0,1,.4795-4.8H924.65a21.0617,21.0617,0,0,1-.4805-4.8,20.13,20.13,0,0,1,.4805-4.8,21.0614,21.0614,0,0,1-.4805-4.8,20.1245,20.1245,0,0,1,.4805-4.8,21.0645,21.0645,0,0,1-.4805-4.8,20.1274,20.1274,0,0,1,.4805-4.8,21.0645,21.0645,0,0,1-.4805-4.8,20.1259,20.1259,0,0,1,.4805-4.8,21.0648,21.0648,0,0,1-.4805-4.8,20.1272,20.1272,0,0,1,.4805-4.8h-7.2a21.1184,21.1184,0,0,1-.4805-4.8,20.182,20.182,0,0,1,.4805-4.8h16.8a20.2343,20.2343,0,0,1,.4805,4.8,21.1755,21.1755,0,0,1-.4805,4.8,20.2313,20.2313,0,0,1,.4805,4.8,21.1786,21.1786,0,0,1-.4805,4.8,20.23,20.23,0,0,1,.4805,4.8,21.1783,21.1783,0,0,1-.4805,4.8,20.2316,20.2316,0,0,1,.4805,4.8,21.1783,21.1783,0,0,1-.4805,4.8,20.2286,20.2286,0,0,1,.4805,4.8,21.1752,21.1752,0,0,1-.4805,4.8,20.2343,20.2343,0,0,1,.4805,4.8,21.1755,21.1755,0,0,1-.4805,4.8H943.85A20.29,20.29,0,0,1,944.33,183.5446Z"/>
    <path class="cls-5" d="M988.489,149.9445a20.2846,20.2846,0,0,1,.48,4.8,21.2361,21.2361,0,0,1-.48,4.8h-24a21.1155,21.1155,0,0,1-.4805-4.8,20.1741,20.1741,0,0,1,.4805-4.8Z"/>
    <path class="cls-5" d="M1038.4079,183.5446a21.2346,21.2346,0,0,1-.4795,4.8h-28.8008a21.1259,21.1259,0,0,1-.48-4.8,20.1848,20.1848,0,0,1,.48-4.8h9.6006a21.0617,21.0617,0,0,1-.4805-4.8,20.13,20.13,0,0,1,.4805-4.8,21.0614,21.0614,0,0,1-.4805-4.8,20.1245,20.1245,0,0,1,.4805-4.8,21.0645,21.0645,0,0,1-.4805-4.8,20.1274,20.1274,0,0,1,.4805-4.8,21.0645,21.0645,0,0,1-.4805-4.8,20.1259,20.1259,0,0,1,.4805-4.8,21.0648,21.0648,0,0,1-.4805-4.8,20.1272,20.1272,0,0,1,.4805-4.8h-7.2a21.1184,21.1184,0,0,1-.4805-4.8,20.182,20.182,0,0,1,.4805-4.8h16.8a20.229,20.229,0,0,1,.48,4.8,21.17,21.17,0,0,1-.48,4.8,20.2261,20.2261,0,0,1,.48,4.8,21.1728,21.1728,0,0,1-.48,4.8,20.2248,20.2248,0,0,1,.48,4.8,21.1725,21.1725,0,0,1-.48,4.8,20.2263,20.2263,0,0,1,.48,4.8,21.1725,21.1725,0,0,1-.48,4.8,20.2234,20.2234,0,0,1,.48,4.8,21.1694,21.1694,0,0,1-.48,4.8,20.229,20.229,0,0,1,.48,4.8,21.17,21.17,0,0,1-.48,4.8h9.6006A20.2843,20.2843,0,0,1,1038.4079,183.5446Z"/>
    <path class="cls-5" d="M1085.4479,183.5446a21.2346,21.2346,0,0,1-.4795,4.8h-28.8007a21.1259,21.1259,0,0,1-.4795-4.8,20.1848,20.1848,0,0,1,.4795-4.8h9.6006a21.0617,21.0617,0,0,1-.48-4.8,20.13,20.13,0,0,1,.48-4.8,21.0614,21.0614,0,0,1-.48-4.8,20.1245,20.1245,0,0,1,.48-4.8,21.0645,21.0645,0,0,1-.48-4.8,20.1274,20.1274,0,0,1,.48-4.8h-7.2a21.1155,21.1155,0,0,1-.48-4.8,20.1727,20.1727,0,0,1,.48-4.8h16.8a20.2306,20.2306,0,0,1,.48,4.8,21.1787,21.1787,0,0,1-.48,4.8,20.2321,20.2321,0,0,1,.48,4.8,21.1787,21.1787,0,0,1-.48,4.8,20.2292,20.2292,0,0,1,.48,4.8,21.1756,21.1756,0,0,1-.48,4.8,20.2348,20.2348,0,0,1,.48,4.8,21.1759,21.1759,0,0,1-.48,4.8h9.6005A20.2843,20.2843,0,0,1,1085.4479,183.5446Zm-19.68-52.8a21.0617,21.0617,0,0,1-.48-4.8,20.13,20.13,0,0,1,.48-4.8h9.6a20.2348,20.2348,0,0,1,.48,4.8,21.1759,21.1759,0,0,1-.48,4.8Z"/>
    <path class="cls-5" d="M1134.4069,178.7444h-4.8a20.2786,20.2786,0,0,1,.4805,4.8,21.23,21.23,0,0,1-.4805,4.8h-26.4a21.1259,21.1259,0,0,1-.4795-4.8,20.1848,20.1848,0,0,1,.4795-4.8h21.6006a21.0617,21.0617,0,0,1-.48-4.8,20.13,20.13,0,0,1,.48-4.8h-19.2a21.1186,21.1186,0,0,1-.48-4.8,20.177,20.177,0,0,1,.48-4.8h-4.8a21.0645,21.0645,0,0,1-.48-4.8,20.1274,20.1274,0,0,1,.48-4.8h4.8a21.1217,21.1217,0,0,1-.48-4.8,20.1784,20.1784,0,0,1,.48-4.8h26.4a20.283,20.283,0,0,1,.48,4.8,21.2343,21.2343,0,0,1-.48,4.8h-21.6006a20.2263,20.2263,0,0,1,.4805,4.8,21.1725,21.1725,0,0,1-.4805,4.8h19.2a20.2758,20.2758,0,0,1,.4805,4.8,21.2268,21.2268,0,0,1-.4805,4.8h4.8a20.229,20.229,0,0,1,.4805,4.8A21.17,21.17,0,0,1,1134.4069,178.7444Z"/>
    <path class="cls-5" d="M1179.0466,178.7444a20.29,20.29,0,0,1,.48,4.8,21.24,21.24,0,0,1-.48,4.8h-19.2a21.0648,21.0648,0,0,1-.48-4.8,20.1272,20.1272,0,0,1,.48-4.8h-4.8a21.0617,21.0617,0,0,1-.48-4.8,20.13,20.13,0,0,1,.48-4.8,21.0614,21.0614,0,0,1-.48-4.8,20.1245,20.1245,0,0,1,.48-4.8,21.0645,21.0645,0,0,1-.48-4.8,20.1274,20.1274,0,0,1,.48-4.8h-9.6006a21.1256,21.1256,0,0,1-.4795-4.8,20.1835,20.1835,0,0,1,.4795-4.8h9.6006a21.0648,21.0648,0,0,1-.48-4.8,20.1272,20.1272,0,0,1,.48-4.8,21.0617,21.0617,0,0,1-.48-4.8,20.13,20.13,0,0,1,.48-4.8h9.6a20.2868,20.2868,0,0,1,.4805,4.8,21.2328,21.2328,0,0,1-.4805,4.8,20.2838,20.2838,0,0,1,.4805,4.8,21.2359,21.2359,0,0,1-.4805,4.8h14.4a20.2883,20.2883,0,0,1,.48,4.8,21.24,21.24,0,0,1-.48,4.8h-14.4a20.284,20.284,0,0,1,.4805,4.8,21.2356,21.2356,0,0,1-.4805,4.8,20.2811,20.2811,0,0,1,.4805,4.8,21.2325,21.2325,0,0,1-.4805,4.8,20.2868,20.2868,0,0,1,.4805,4.8,21.2328,21.2328,0,0,1-.4805,4.8Z"/>
    <path class="cls-3" d="M31.9836,206.3445a21.2,21.2,0,0,1-.48,4.8h-6a21.12,21.12,0,0,1-.48-4.8,20.1793,20.1793,0,0,1,.48-4.8h6A20.2524,20.2524,0,0,1,31.9836,206.3445Zm-6.48,72h6a20.2428,20.2428,0,0,1,.48,4.8,21.2282,21.2282,0,0,1-.48,4.8h-6a21.148,21.148,0,0,1-.48-4.8A20.17,20.17,0,0,1,25.5036,278.3445Zm19.08-33.6a21.2091,21.2091,0,0,1-.48,4.8,20.2577,20.2577,0,0,1,.48,4.8,21.206,21.206,0,0,1-.48,4.8h-3.6a20.2581,20.2581,0,0,1,.48,4.8,21.2006,21.2006,0,0,1-.48,4.8h-3a20.2552,20.2552,0,0,1,.48,4.8,21.2037,21.2037,0,0,1-.48,4.8h-6a21.1237,21.1237,0,0,1-.48-4.8,20.182,20.182,0,0,1,.48-4.8h3a21.1206,21.1206,0,0,1-.48-4.8,20.1849,20.1849,0,0,1,.48-4.8,21.12,21.12,0,0,1-.48-4.8,20.1793,20.1793,0,0,1,.48-4.8,21.1234,21.1234,0,0,1-.48-4.8,20.1822,20.1822,0,0,1,.48-4.8,21.1234,21.1234,0,0,1-.48-4.8,20.1807,20.1807,0,0,1,.48-4.8,21.1237,21.1237,0,0,1-.48-4.8,20.182,20.182,0,0,1,.48-4.8h-3a21.1206,21.1206,0,0,1-.48-4.8,20.1849,20.1849,0,0,1,.48-4.8h6a20.2581,20.2581,0,0,1,.48,4.8,21.2006,21.2006,0,0,1-.48,4.8h3a20.2552,20.2552,0,0,1,.48,4.8,21.2037,21.2037,0,0,1-.48,4.8h3.6a20.2591,20.2591,0,0,1,.48,4.8,21.2091,21.2091,0,0,1-.48,4.8A20.2606,20.2606,0,0,1,44.5837,244.7444Z"/>
  </g>
</svg>
