<svg id="Capa_1" data-name="Capa 1" xmlns="http://www.w3.org/2000/svg" viewBox="0 0 1228 150">
  <defs>
    <style>
      .cls-1 {
        fill: #0d1117;
      }

      .cls-2 {
        fill: #1e2630;
      }

      .cls-3 {
        fill: #fff;
      }

      .cls-4 {
        fill: #6100bf;
      }

      .cls-5 {
        fill: #9cff00;
      }
    </style>
  </defs>
  <g id="vsl">
    <g id="bg">
      <rect class="cls-1" y="3.173" width="1228" height="143.5545"/>
      <rect class="cls-2" y="-0.0833" width="1228" height="7.1667"/>
      <rect class="cls-2" y="142.9167" width="1228" height="7.1667"/>
    </g>
    <path class="cls-3" d="M352.9984,101.7734a25.3269,25.3269,0,0,1,.6,6,26.5137,26.5137,0,0,1-.6,6h-15a26.3711,26.3711,0,0,1-.6-6,25.1963,25.1963,0,0,1,.6-6,26.3711,26.3711,0,0,1-.6-6,25.1963,25.1963,0,0,1,.6-6h15a25.3269,25.3269,0,0,1,.6,6A26.5137,26.5137,0,0,1,352.9984,101.7734Z"/>
    <g>
      <path class="cls-3" d="M66.3594,111a26.5137,26.5137,0,0,1-.6,6h-36a26.3711,26.3711,0,0,1-.6-6,25.1963,25.1963,0,0,1,.6-6h12a26.3711,26.3711,0,0,1-.6-6,25.1963,25.1963,0,0,1,.6-6,26.3711,26.3711,0,0,1-.6-6,25.1963,25.1963,0,0,1,.6-6,26.3711,26.3711,0,0,1-.6-6,25.1963,25.1963,0,0,1,.6-6,26.3711,26.3711,0,0,1-.6-6,25.1963,25.1963,0,0,1,.6-6,26.3711,26.3711,0,0,1-.6-6,25.1963,25.1963,0,0,1,.6-6h-9a26.3711,26.3711,0,0,1-.6-6,25.1963,25.1963,0,0,1,.6-6h21a25.3269,25.3269,0,0,1,.6,6,26.5137,26.5137,0,0,1-.6,6,25.3269,25.3269,0,0,1,.6,6,26.5137,26.5137,0,0,1-.6,6,25.3269,25.3269,0,0,1,.6,6,26.5137,26.5137,0,0,1-.6,6,25.3269,25.3269,0,0,1,.6,6,26.5137,26.5137,0,0,1-.6,6,25.3269,25.3269,0,0,1,.6,6,26.5137,26.5137,0,0,1-.6,6,25.3269,25.3269,0,0,1,.6,6,26.5137,26.5137,0,0,1-.6,6h12A25.3269,25.3269,0,0,1,66.3594,111Z"/>
      <path class="cls-3" d="M100.2583,105h15a25.3269,25.3269,0,0,1,.6,6,26.5137,26.5137,0,0,1-.6,6h-24a26.3711,26.3711,0,0,1-.6-6,25.1963,25.1963,0,0,1,.6-6h-7.5a26.3711,26.3711,0,0,1-.6-6,25.1963,25.1963,0,0,1,.6-6,26.3711,26.3711,0,0,1-.6-6,25.1963,25.1963,0,0,1,.6-6,26.3711,26.3711,0,0,1-.6-6,25.1963,25.1963,0,0,1,.6-6,26.3711,26.3711,0,0,1-.6-6,25.1963,25.1963,0,0,1,.6-6h12a25.3269,25.3269,0,0,1,.6,6,26.5137,26.5137,0,0,1-.6,6,25.3269,25.3269,0,0,1,.6,6,26.5137,26.5137,0,0,1-.6,6,25.3269,25.3269,0,0,1,.6,6,26.5137,26.5137,0,0,1-.6,6h4.5a25.3269,25.3269,0,0,1,.6,6A26.5137,26.5137,0,0,1,100.2583,105Zm32.1-30a26.5137,26.5137,0,0,1-.6,6,25.3269,25.3269,0,0,1,.6,6,26.5137,26.5137,0,0,1-.6,6,25.3269,25.3269,0,0,1,.6,6,26.5137,26.5137,0,0,1-.6,6,25.3269,25.3269,0,0,1,.6,6,26.5137,26.5137,0,0,1-.6,6h-12a26.3711,26.3711,0,0,1-.6-6,25.1963,25.1963,0,0,1,.6-6h-4.5a26.3711,26.3711,0,0,1-.6-6,25.1963,25.1963,0,0,1,.6-6h4.5a26.3711,26.3711,0,0,1-.6-6,25.1963,25.1963,0,0,1,.6-6,26.3711,26.3711,0,0,1-.6-6,25.1963,25.1963,0,0,1,.6-6,26.3711,26.3711,0,0,1-.6-6,25.1963,25.1963,0,0,1,.6-6h12a25.3269,25.3269,0,0,1,.6,6,26.5137,26.5137,0,0,1-.6,6A25.3269,25.3269,0,0,1,132.3584,75Z"/>
      <path class="cls-3" d="M191.7573,93a25.3216,25.3216,0,0,1,.6,6,26.508,26.508,0,0,1-.6,6h-6a25.3216,25.3216,0,0,1,.6,6,26.508,26.508,0,0,1-.6,6h-30a26.3711,26.3711,0,0,1-.6-6,25.1963,25.1963,0,0,1,.6-6h-6a26.3711,26.3711,0,0,1-.6-6,25.1963,25.1963,0,0,1,.6-6h-6a26.3711,26.3711,0,0,1-.6-6,25.1963,25.1963,0,0,1,.6-6h6a26.3711,26.3711,0,0,1-.6-6,25.1963,25.1963,0,0,1,.6-6h6a26.3711,26.3711,0,0,1-.6-6,25.1963,25.1963,0,0,1,.6-6h30a25.3216,25.3216,0,0,1,.6,6,26.508,26.508,0,0,1-.6,6h6a25.3216,25.3216,0,0,1,.6,6,26.508,26.508,0,0,1-.6,6h-12a26.3711,26.3711,0,0,1-.6-6,25.1963,25.1963,0,0,1,.6-6h-18a25.3216,25.3216,0,0,1,.6,6,26.508,26.508,0,0,1-.6,6h-6a25.3216,25.3216,0,0,1,.6,6,26.508,26.508,0,0,1-.6,6h6a25.3216,25.3216,0,0,1,.6,6,26.508,26.508,0,0,1-.6,6h18a26.3711,26.3711,0,0,1-.6-6,25.1963,25.1963,0,0,1,.6-6Z"/>
      <path class="cls-3" d="M252.3564,111a26.508,26.508,0,0,1-.6,6h-12a26.3772,26.3772,0,0,1-.6-6,25.2021,25.2021,0,0,1,.6-6h-6a26.3772,26.3772,0,0,1-.6-6,25.2021,25.2021,0,0,1,.6-6h-18a25.3216,25.3216,0,0,1,.6,6,26.508,26.508,0,0,1-.6,6h18a25.3216,25.3216,0,0,1,.6,6,26.508,26.508,0,0,1-.6,6h-24a26.3772,26.3772,0,0,1-.6-6,25.2021,25.2021,0,0,1,.6-6h-6a26.3772,26.3772,0,0,1-.6-6,25.2021,25.2021,0,0,1,.6-6h6a26.3772,26.3772,0,0,1-.6-6,25.2021,25.2021,0,0,1,.6-6h24a26.3772,26.3772,0,0,1-.6-6,25.2021,25.2021,0,0,1,.6-6h-21a26.3772,26.3772,0,0,1-.6-6,25.2021,25.2021,0,0,1,.6-6h27a25.3216,25.3216,0,0,1,.6,6,26.508,26.508,0,0,1-.6,6h6a25.3216,25.3216,0,0,1,.6,6,26.508,26.508,0,0,1-.6,6,25.3216,25.3216,0,0,1,.6,6,26.508,26.508,0,0,1-.6,6,25.3216,25.3216,0,0,1,.6,6,26.508,26.508,0,0,1-.6,6h6A25.3216,25.3216,0,0,1,252.3564,111Z"/>
      <path class="cls-3" d="M308.7554,105h-6a25.3269,25.3269,0,0,1,.6,6,26.5137,26.5137,0,0,1-.6,6h-33a26.3711,26.3711,0,0,1-.6-6,25.1963,25.1963,0,0,1,.6-6h27a26.3711,26.3711,0,0,1-.6-6,25.1963,25.1963,0,0,1,.6-6h-24a26.3711,26.3711,0,0,1-.6-6,25.1963,25.1963,0,0,1,.6-6h-6a26.3711,26.3711,0,0,1-.6-6,25.1963,25.1963,0,0,1,.6-6h6a26.3711,26.3711,0,0,1-.6-6,25.1963,25.1963,0,0,1,.6-6h33a25.3269,25.3269,0,0,1,.6,6,26.5137,26.5137,0,0,1-.6,6h-27a25.3269,25.3269,0,0,1,.6,6,26.5137,26.5137,0,0,1-.6,6h24a25.3269,25.3269,0,0,1,.6,6,26.5137,26.5137,0,0,1-.6,6h6a25.3269,25.3269,0,0,1,.6,6A26.5137,26.5137,0,0,1,308.7554,105Z"/>
      <path class="cls-4" d="M426.354,111a26.5137,26.5137,0,0,1-.6,6h-36a26.3711,26.3711,0,0,1-.6-6,25.1963,25.1963,0,0,1,.6-6h12a26.3711,26.3711,0,0,1-.6-6,25.1963,25.1963,0,0,1,.6-6,26.3711,26.3711,0,0,1-.6-6,25.1963,25.1963,0,0,1,.6-6,26.3711,26.3711,0,0,1-.6-6,25.1963,25.1963,0,0,1,.6-6,26.3711,26.3711,0,0,1-.6-6,25.1963,25.1963,0,0,1,.6-6,26.3711,26.3711,0,0,1-.6-6,25.1963,25.1963,0,0,1,.6-6h-9a26.3711,26.3711,0,0,1-.6-6,25.1963,25.1963,0,0,1,.6-6h21a25.3269,25.3269,0,0,1,.6,6,26.5137,26.5137,0,0,1-.6,6,25.3269,25.3269,0,0,1,.6,6,26.5137,26.5137,0,0,1-.6,6,25.3269,25.3269,0,0,1,.6,6,26.5137,26.5137,0,0,1-.6,6,25.3269,25.3269,0,0,1,.6,6,26.5137,26.5137,0,0,1-.6,6,25.3269,25.3269,0,0,1,.6,6,26.5137,26.5137,0,0,1-.6,6,25.3269,25.3269,0,0,1,.6,6,26.5137,26.5137,0,0,1-.6,6h12A25.3269,25.3269,0,0,1,426.354,111Z"/>
      <path class="cls-4" d="M492.353,111a26.508,26.508,0,0,1-.6,6h-12a26.3767,26.3767,0,0,1-.6-6,25.2015,25.2015,0,0,1,.6-6h-6a26.3767,26.3767,0,0,1-.6-6,25.2015,25.2015,0,0,1,.6-6h-18a25.3216,25.3216,0,0,1,.6,6,26.508,26.508,0,0,1-.6,6h18a25.3216,25.3216,0,0,1,.6,6,26.508,26.508,0,0,1-.6,6h-24a26.3767,26.3767,0,0,1-.6-6,25.2015,25.2015,0,0,1,.6-6h-6a26.3767,26.3767,0,0,1-.6-6,25.2015,25.2015,0,0,1,.6-6h6a26.3767,26.3767,0,0,1-.6-6,25.2015,25.2015,0,0,1,.6-6h24a26.3767,26.3767,0,0,1-.6-6,25.2015,25.2015,0,0,1,.6-6h-21a26.3767,26.3767,0,0,1-.6-6,25.2015,25.2015,0,0,1,.6-6h27a25.3216,25.3216,0,0,1,.6,6,26.508,26.508,0,0,1-.6,6h6a25.3216,25.3216,0,0,1,.6,6,26.508,26.508,0,0,1-.6,6,25.3216,25.3216,0,0,1,.6,6,26.508,26.508,0,0,1-.6,6,25.3216,25.3216,0,0,1,.6,6,26.508,26.508,0,0,1-.6,6h6A25.3216,25.3216,0,0,1,492.353,111Z"/>
      <path class="cls-4" d="M516.3521,99a26.5137,26.5137,0,0,1-.6,6h-6a25.3269,25.3269,0,0,1,.6,6,26.5137,26.5137,0,0,1-.6,6h-6a26.3711,26.3711,0,0,1-.6-6,25.1963,25.1963,0,0,1,.6-6,26.3711,26.3711,0,0,1-.6-6,25.1963,25.1963,0,0,1,.6-6,26.3711,26.3711,0,0,1-.6-6,25.1963,25.1963,0,0,1,.6-6,26.3711,26.3711,0,0,1-.6-6,25.1963,25.1963,0,0,1,.6-6,26.3711,26.3711,0,0,1-.6-6,25.1963,25.1963,0,0,1,.6-6,26.3711,26.3711,0,0,1-.6-6,25.1963,25.1963,0,0,1,.6-6,26.3711,26.3711,0,0,1-.6-6,25.1963,25.1963,0,0,1,.6-6h12a25.3269,25.3269,0,0,1,.6,6,26.5137,26.5137,0,0,1-.6,6,25.3269,25.3269,0,0,1,.6,6,26.5137,26.5137,0,0,1-.6,6,25.3269,25.3269,0,0,1,.6,6,26.5137,26.5137,0,0,1-.6,6h6a25.3269,25.3269,0,0,1,.6,6,26.5137,26.5137,0,0,1-.6,6h-6a25.3269,25.3269,0,0,1,.6,6,26.5137,26.5137,0,0,1-.6,6A25.3269,25.3269,0,0,1,516.3521,99Zm-.6,6h18a25.3269,25.3269,0,0,1,.6,6,26.5137,26.5137,0,0,1-.6,6h-18a26.3711,26.3711,0,0,1-.6-6A25.1963,25.1963,0,0,1,515.752,105Zm36-12h-6a25.3269,25.3269,0,0,1,.6,6,26.5137,26.5137,0,0,1-.6,6h-12a26.3711,26.3711,0,0,1-.6-6,25.1963,25.1963,0,0,1,.6-6h6a26.3711,26.3711,0,0,1-.6-6,25.1963,25.1963,0,0,1,.6-6h-6a26.3711,26.3711,0,0,1-.6-6,25.1963,25.1963,0,0,1,.6-6h-12a26.3711,26.3711,0,0,1-.6-6,25.1963,25.1963,0,0,1,.6-6h18a25.3269,25.3269,0,0,1,.6,6,26.5137,26.5137,0,0,1-.6,6h6a25.3269,25.3269,0,0,1,.6,6,26.5137,26.5137,0,0,1-.6,6h6a25.3269,25.3269,0,0,1,.6,6A26.5137,26.5137,0,0,1,551.752,93Z"/>
      <path class="cls-4" d="M608.751,105h-6a25.3269,25.3269,0,0,1,.6,6,26.5137,26.5137,0,0,1-.6,6h-33a26.3711,26.3711,0,0,1-.6-6,25.1963,25.1963,0,0,1,.6-6h27a26.3711,26.3711,0,0,1-.6-6,25.1963,25.1963,0,0,1,.6-6h-24a26.3711,26.3711,0,0,1-.6-6,25.1963,25.1963,0,0,1,.6-6h-6a26.3711,26.3711,0,0,1-.6-6,25.1963,25.1963,0,0,1,.6-6h6a26.3711,26.3711,0,0,1-.6-6,25.1963,25.1963,0,0,1,.6-6h33a25.3269,25.3269,0,0,1,.6,6,26.5137,26.5137,0,0,1-.6,6h-27a25.3269,25.3269,0,0,1,.6,6,26.5137,26.5137,0,0,1-.6,6h24a25.3269,25.3269,0,0,1,.6,6,26.5137,26.5137,0,0,1-.6,6h6a25.3269,25.3269,0,0,1,.6,6A26.5137,26.5137,0,0,1,608.751,105Z"/>
      <path class="cls-3" d="M653.6,111a26.5137,26.5137,0,0,1-.6,6h-7.5a26.3711,26.3711,0,0,1-.6-6,25.1963,25.1963,0,0,1,.6-6h-3.75a26.3711,26.3711,0,0,1-.6-6,25.1963,25.1963,0,0,1,.6-6h-4.5a26.3711,26.3711,0,0,1-.6-6,25.1963,25.1963,0,0,1,.6-6,26.3711,26.3711,0,0,1-.6-6,25.1963,25.1963,0,0,1,.6-6,26.3711,26.3711,0,0,1-.6-6,25.1963,25.1963,0,0,1,.6-6h4.5a26.3711,26.3711,0,0,1-.6-6,25.1963,25.1963,0,0,1,.6-6h3.75a26.3711,26.3711,0,0,1-.6-6,25.1963,25.1963,0,0,1,.6-6H653a25.3269,25.3269,0,0,1,.6,6,26.5137,26.5137,0,0,1-.6,6h-3.75a25.3269,25.3269,0,0,1,.6,6,26.5137,26.5137,0,0,1-.6,6,25.3269,25.3269,0,0,1,.6,6,26.5137,26.5137,0,0,1-.6,6,25.3269,25.3269,0,0,1,.6,6,26.5137,26.5137,0,0,1-.6,6,25.3269,25.3269,0,0,1,.6,6,26.5137,26.5137,0,0,1-.6,6,25.3269,25.3269,0,0,1,.6,6,26.5137,26.5137,0,0,1-.6,6H653A25.3269,25.3269,0,0,1,653.6,111Zm6.9-78H653a26.3711,26.3711,0,0,1-.6-6,25.1963,25.1963,0,0,1,.6-6h7.5a25.3269,25.3269,0,0,1,.6,6A26.5137,26.5137,0,0,1,660.5,33Zm0,84a25.3152,25.3152,0,0,1,.6,6,26.55,26.55,0,0,1-.6,6H653a26.4073,26.4073,0,0,1-.6-6,25.1848,25.1848,0,0,1,.6-6Z"/>
      <path class="cls-5" d="M731.75,69h-4.5a25.33,25.33,0,0,1,.6,6,26.5159,26.5159,0,0,1-.6,6h-4.5a25.3216,25.3216,0,0,1,.6,6,26.508,26.508,0,0,1-.6,6h-3a25.3216,25.3216,0,0,1,.6,6,26.508,26.508,0,0,1-.6,6h-6a25.3216,25.3216,0,0,1,.6,6,26.508,26.508,0,0,1-.6,6h-12a26.3711,26.3711,0,0,1-.6-6,25.1963,25.1963,0,0,1,.6-6h-6a26.3711,26.3711,0,0,1-.6-6,25.1963,25.1963,0,0,1,.6-6h-3a26.3711,26.3711,0,0,1-.6-6,25.1963,25.1963,0,0,1,.6-6h-4.5a26.3711,26.3711,0,0,1-.6-6,25.1963,25.1963,0,0,1,.6-6h-4.5a26.3711,26.3711,0,0,1-.6-6,25.1963,25.1963,0,0,1,.6-6h12a25.3216,25.3216,0,0,1,.6,6,26.508,26.508,0,0,1-.6,6h4.5a25.3216,25.3216,0,0,1,.6,6,26.508,26.508,0,0,1-.6,6h4.5a25.3216,25.3216,0,0,1,.6,6,26.508,26.508,0,0,1-.6,6h6a26.3711,26.3711,0,0,1-.6-6,25.1963,25.1963,0,0,1,.6-6h4.5a26.3711,26.3711,0,0,1-.6-6,25.1963,25.1963,0,0,1,.6-6h4.5a26.3711,26.3711,0,0,1-.6-6,25.1963,25.1963,0,0,1,.6-6h12a25.33,25.33,0,0,1,.6,6A26.5159,26.5159,0,0,1,731.75,69Z"/>
      <path class="cls-5" d="M760.2485,105h15a25.3245,25.3245,0,0,1,.6,6,26.51,26.51,0,0,1-.6,6h-24a26.4017,26.4017,0,0,1-.6-6,25.2252,25.2252,0,0,1,.6-6h-7.5a26.4017,26.4017,0,0,1-.6-6,25.2252,25.2252,0,0,1,.6-6,26.4017,26.4017,0,0,1-.6-6,25.2252,25.2252,0,0,1,.6-6,26.4017,26.4017,0,0,1-.6-6,25.2252,25.2252,0,0,1,.6-6,26.4017,26.4017,0,0,1-.6-6,25.2252,25.2252,0,0,1,.6-6h12a25.3245,25.3245,0,0,1,.6,6,26.51,26.51,0,0,1-.6,6,25.3245,25.3245,0,0,1,.6,6,26.51,26.51,0,0,1-.6,6,25.3245,25.3245,0,0,1,.6,6,26.51,26.51,0,0,1-.6,6h4.5a25.3245,25.3245,0,0,1,.6,6A26.51,26.51,0,0,1,760.2485,105Zm32.1-30a26.51,26.51,0,0,1-.6,6,25.3245,25.3245,0,0,1,.6,6,26.51,26.51,0,0,1-.6,6,25.3245,25.3245,0,0,1,.6,6,26.51,26.51,0,0,1-.6,6,25.3245,25.3245,0,0,1,.6,6,26.51,26.51,0,0,1-.6,6h-12a26.4017,26.4017,0,0,1-.6-6,25.2252,25.2252,0,0,1,.6-6h-4.5a26.4017,26.4017,0,0,1-.6-6,25.2252,25.2252,0,0,1,.6-6h4.5a26.4017,26.4017,0,0,1-.6-6,25.2252,25.2252,0,0,1,.6-6,26.4017,26.4017,0,0,1-.6-6,25.2252,25.2252,0,0,1,.6-6,26.4017,26.4017,0,0,1-.6-6,25.2252,25.2252,0,0,1,.6-6h12a25.3245,25.3245,0,0,1,.6,6,26.51,26.51,0,0,1-.6,6A25.3245,25.3245,0,0,1,792.3481,75Z"/>
      <path class="cls-5" d="M851.7476,81a25.33,25.33,0,0,1,.6,6,26.5159,26.5159,0,0,1-.6,6h-31.5a25.33,25.33,0,0,1,.6,6,26.5159,26.5159,0,0,1-.6,6h25.5a25.33,25.33,0,0,1,.6,6,26.5159,26.5159,0,0,1-.6,6h-30a26.4012,26.4012,0,0,1-.6-6,25.2246,25.2246,0,0,1,.6-6h-7.5a26.4012,26.4012,0,0,1-.6-6,25.2246,25.2246,0,0,1,.6-6h-4.5a26.4012,26.4012,0,0,1-.6-6,25.2246,25.2246,0,0,1,.6-6h4.5a26.4012,26.4012,0,0,1-.6-6,25.2246,25.2246,0,0,1,.6-6h7.5a26.4012,26.4012,0,0,1-.6-6,25.2246,25.2246,0,0,1,.6-6h30a25.33,25.33,0,0,1,.6,6,26.5159,26.5159,0,0,1-.6,6h6a25.33,25.33,0,0,1,.6,6A26.5159,26.5159,0,0,1,851.7476,81Zm-12.6-6a25.2246,25.2246,0,0,1,.6-6h-19.5a25.33,25.33,0,0,1,.6,6,26.5159,26.5159,0,0,1-.6,6h19.5A26.4012,26.4012,0,0,1,839.1479,75Z"/>
      <path class="cls-5" d="M908.7466,69h-6a25.33,25.33,0,0,1,.6,6,26.5159,26.5159,0,0,1-.6,6h6a25.33,25.33,0,0,1,.6,6,26.5159,26.5159,0,0,1-.6,6,25.33,25.33,0,0,1,.6,6,26.5159,26.5159,0,0,1-.6,6h-6a25.33,25.33,0,0,1,.6,6,26.5159,26.5159,0,0,1-.6,6h-30a26.4017,26.4017,0,0,1-.6-6,25.2252,25.2252,0,0,1,.6-6h-6a26.4017,26.4017,0,0,1-.6-6,25.2252,25.2252,0,0,1,.6-6h12a25.33,25.33,0,0,1,.6,6,26.5159,26.5159,0,0,1-.6,6h18a26.4017,26.4017,0,0,1-.6-6,25.2252,25.2252,0,0,1,.6-6,26.4017,26.4017,0,0,1-.6-6,25.2252,25.2252,0,0,1,.6-6h-15a26.4017,26.4017,0,0,1-.6-6,25.2252,25.2252,0,0,1,.6-6h15a26.4017,26.4017,0,0,1-.6-6,25.2252,25.2252,0,0,1,.6-6,26.4017,26.4017,0,0,1-.6-6,25.2252,25.2252,0,0,1,.6-6h-18a25.33,25.33,0,0,1,.6,6,26.5159,26.5159,0,0,1-.6,6h-12a26.4017,26.4017,0,0,1-.6-6,25.2252,25.2252,0,0,1,.6-6h6a26.4017,26.4017,0,0,1-.6-6,25.2252,25.2252,0,0,1,.6-6h30a25.33,25.33,0,0,1,.6,6,26.5159,26.5159,0,0,1-.6,6h6a25.33,25.33,0,0,1,.6,6,26.5159,26.5159,0,0,1-.6,6,25.33,25.33,0,0,1,.6,6A26.5159,26.5159,0,0,1,908.7466,69Z"/>
      <path class="cls-5" d="M962.7456,69a25.33,25.33,0,0,1,.6,6,26.5159,26.5159,0,0,1-.6,6h-30a26.4017,26.4017,0,0,1-.6-6,25.2252,25.2252,0,0,1,.6-6Z"/>
      <path class="cls-5" d="M1031.7441,69h-4.5a25.3239,25.3239,0,0,1,.6,6,26.51,26.51,0,0,1-.6,6h-4.5a25.3239,25.3239,0,0,1,.6,6,26.51,26.51,0,0,1-.6,6h-3a25.3239,25.3239,0,0,1,.6,6,26.51,26.51,0,0,1-.6,6h-6a25.3239,25.3239,0,0,1,.6,6,26.51,26.51,0,0,1-.6,6h-12a26.4017,26.4017,0,0,1-.6-6,25.2252,25.2252,0,0,1,.6-6h-6a26.4017,26.4017,0,0,1-.6-6,25.2252,25.2252,0,0,1,.6-6h-3a26.4017,26.4017,0,0,1-.6-6,25.2252,25.2252,0,0,1,.6-6h-4.5a26.4017,26.4017,0,0,1-.6-6,25.2252,25.2252,0,0,1,.6-6h-4.5a26.4017,26.4017,0,0,1-.6-6,25.2252,25.2252,0,0,1,.6-6h12a25.3245,25.3245,0,0,1,.6,6,26.51,26.51,0,0,1-.6,6h4.5a25.3245,25.3245,0,0,1,.6,6,26.51,26.51,0,0,1-.6,6h4.5a25.3245,25.3245,0,0,1,.6,6,26.51,26.51,0,0,1-.6,6h6a26.4073,26.4073,0,0,1-.6-6,25.23,25.23,0,0,1,.6-6h4.5a26.4073,26.4073,0,0,1-.6-6,25.23,25.23,0,0,1,.6-6h4.5a26.4073,26.4073,0,0,1-.6-6,25.23,25.23,0,0,1,.6-6h12a25.3239,25.3239,0,0,1,.6,6A26.51,26.51,0,0,1,1031.7441,69Z"/>
      <path class="cls-5" d="M1088.7432,105h-6a25.33,25.33,0,0,1,.6,6,26.5159,26.5159,0,0,1-.6,6h-33a26.4017,26.4017,0,0,1-.6-6,25.2252,25.2252,0,0,1,.6-6h27a26.4017,26.4017,0,0,1-.6-6,25.2252,25.2252,0,0,1,.6-6h-24a26.4017,26.4017,0,0,1-.6-6,25.2252,25.2252,0,0,1,.6-6h-6a26.4017,26.4017,0,0,1-.6-6,25.2252,25.2252,0,0,1,.6-6h6a26.4017,26.4017,0,0,1-.6-6,25.2252,25.2252,0,0,1,.6-6h33a25.33,25.33,0,0,1,.6,6,26.5159,26.5159,0,0,1-.6,6h-27a25.33,25.33,0,0,1,.6,6,26.5159,26.5159,0,0,1-.6,6h24a25.33,25.33,0,0,1,.6,6,26.5159,26.5159,0,0,1-.6,6h6a25.33,25.33,0,0,1,.6,6A26.5159,26.5159,0,0,1,1088.7432,105Z"/>
      <path class="cls-5" d="M1146.3418,111a26.5159,26.5159,0,0,1-.6,6h-36a26.4017,26.4017,0,0,1-.6-6,25.2252,25.2252,0,0,1,.6-6h12a26.4017,26.4017,0,0,1-.6-6,25.2252,25.2252,0,0,1,.6-6,26.4017,26.4017,0,0,1-.6-6,25.2252,25.2252,0,0,1,.6-6,26.4017,26.4017,0,0,1-.6-6,25.2252,25.2252,0,0,1,.6-6,26.4017,26.4017,0,0,1-.6-6,25.2252,25.2252,0,0,1,.6-6,26.4017,26.4017,0,0,1-.6-6,25.2252,25.2252,0,0,1,.6-6h-9a26.4017,26.4017,0,0,1-.6-6,25.2252,25.2252,0,0,1,.6-6h21a25.33,25.33,0,0,1,.6,6,26.5159,26.5159,0,0,1-.6,6,25.33,25.33,0,0,1,.6,6,26.5159,26.5159,0,0,1-.6,6,25.33,25.33,0,0,1,.6,6,26.5159,26.5159,0,0,1-.6,6,25.33,25.33,0,0,1,.6,6,26.5159,26.5159,0,0,1-.6,6,25.33,25.33,0,0,1,.6,6,26.5159,26.5159,0,0,1-.6,6,25.33,25.33,0,0,1,.6,6,26.5159,26.5159,0,0,1-.6,6h12A25.33,25.33,0,0,1,1146.3418,111Z"/>
      <path class="cls-3" d="M1183.0908,27a26.5159,26.5159,0,0,1-.6,6h-7.5a26.4017,26.4017,0,0,1-.6-6,25.2252,25.2252,0,0,1,.6-6h7.5A25.33,25.33,0,0,1,1183.0908,27Zm-8.1,90h7.5a25.3181,25.3181,0,0,1,.6,6,26.5525,26.5525,0,0,1-.6,6h-7.5a26.4379,26.4379,0,0,1-.6-6A25.2136,25.2136,0,0,1,1174.9912,117Zm23.85-42a26.5159,26.5159,0,0,1-.6,6,25.33,25.33,0,0,1,.6,6,26.5159,26.5159,0,0,1-.6,6h-4.5a25.33,25.33,0,0,1,.6,6,26.5159,26.5159,0,0,1-.6,6h-3.75a25.33,25.33,0,0,1,.6,6,26.5159,26.5159,0,0,1-.6,6h-7.5a26.4017,26.4017,0,0,1-.6-6,25.2252,25.2252,0,0,1,.6-6h3.75a26.4017,26.4017,0,0,1-.6-6,25.2252,25.2252,0,0,1,.6-6,26.4017,26.4017,0,0,1-.6-6,25.2252,25.2252,0,0,1,.6-6,26.4017,26.4017,0,0,1-.6-6,25.2252,25.2252,0,0,1,.6-6,26.4017,26.4017,0,0,1-.6-6,25.2252,25.2252,0,0,1,.6-6,26.4017,26.4017,0,0,1-.6-6,25.2252,25.2252,0,0,1,.6-6h-3.75a26.4017,26.4017,0,0,1-.6-6,25.2252,25.2252,0,0,1,.6-6h7.5a25.33,25.33,0,0,1,.6,6,26.5159,26.5159,0,0,1-.6,6h3.75a25.33,25.33,0,0,1,.6,6,26.5159,26.5159,0,0,1-.6,6h4.5a25.33,25.33,0,0,1,.6,6,26.5159,26.5159,0,0,1-.6,6A25.33,25.33,0,0,1,1198.8408,75Z"/>
    </g>
  </g>
</svg>
